<?xml version="1.0" encoding="UTF-8" standalone="no"?> <svg id="Layer_1" data-name="Layer 1" xmlns="http://www.w3.org/2000/svg" viewBox="0 0 128 128"><defs><style>.cls-1{fill:#2d3e50;}</style></defs><title>a</title><path class="cls-1" d="M108.17211,82.18743a9.40067,9.40067,0,0,0-5.08223-6.835c-8.82563-4.404-28.212-10.91312-28.212-10.91312V58.03587l.53733-.40513a18.51291,18.51291,0,0,0,7.02876-11.76747l.11451-.67823h.52846a7.16085,7.16085,0,0,0,6.61481-4.45684,7.75512,7.75512,0,0,0,.97767-3.76985,7.18036,7.18036,0,0,0-.51082-2.66,3.69343,3.69343,0,0,0-1.43571-2.30769l-1.788-1.08342.4404-1.93777C90.61773,14.88551,79.71349,2.202,65.057,1.84969q-.52851-.01322-1.057,0-.52851-.01322-1.057,0c-14.6477.35234-25.56076,13.03582-22.32824,27.1198l.4404,1.93777-1.788,1.08342a3.76942,3.76942,0,0,0-1.43571,2.30769,7.35494,7.35494,0,0,0-.50206,2.66,7.84513,7.84513,0,0,0,.96891,3.76985A7.16386,7.16386,0,0,0,44.92191,45.185h.52846l.10569.67823a18.51291,18.51291,0,0,0,7.02876,11.76747l.53733.40513V64.4393s-19.37759,6.50912-28.212,10.91312a9.42253,9.42253,0,0,0-5.08223,6.835c-1.51495,8.83439-1.77918,23.73756-1.77918,23.73756H41.54843a111.33246,111.33246,0,0,0,8.08573,9.50381,75.34119,75.34119,0,0,0,10.44627,9.23958,6.16226,6.16226,0,0,0,3.83151,1.48855h.17612a6.18606,6.18606,0,0,0,3.84033-1.48855,76.36867,76.36867,0,0,0,10.44627-9.23958,109.67735,109.67735,0,0,0,8.07692-9.50381h23.49972S109.68706,91.02182,108.17211,82.18743ZM73.27484,110.55794A69.024,69.024,0,0,1,64,118.811a70.11886,70.11886,0,0,1-9.27484-8.25309c-1.40926-1.47974-2.80094-3.02114-4.15735-4.633q-2.14034-2.53676-4.16616-5.276c-1.94659-2.63358-3.9372-5.76041-3.9372-9.04577a9.43573,9.43573,0,0,1,16.101-6.67647L64,90.36122l5.43452-5.43452a9.45925,9.45925,0,0,1,10.279-2.04346,9.53755,9.53755,0,0,1,3.06516,2.04346,9.40206,9.40206,0,0,1,2.75691,6.67647c0,3.28536-1.99062,6.41219-3.9372,9.04577-1.33878,1.81444-2.73046,3.58486-4.16616,5.276C76.07578,107.53681,74.69292,109.087,73.27484,110.55794Z"/></svg>