<svg id="Capa_1" enable-background="new 0 0 497.54 497.54" height="512" viewBox="0 0 497.54 497.54" width="512" xmlns="http://www.w3.org/2000/svg"><g><g id="XMLID_585_"><g><path d="m497.54 255.524v108.019c0 5.457-4.424 9.881-9.881 9.881h-9.879c-1.4 0-2.78.37-3.99 1.08l-13.92 8.15c-7.79 4.56-16.66 6.97-25.69 6.97h-133.2v-143.98h186.679c5.457-.001 9.881 4.423 9.881 9.88z" fill="#ffdfcf"/></g></g><path d="m487.66 356.623h-9.879c-1.4 0-2.78.37-3.99 1.08l-13.92 8.15c-7.79 4.56-16.66 6.97-25.69 6.97h-133.2v16.8h133.2c9.03 0 17.9-2.41 25.69-6.97l13.92-8.15c1.21-.71 2.59-1.08 3.99-1.08h9.879c5.457 0 9.88-4.424 9.88-9.881v-16.8c0 5.458-4.424 9.881-9.88 9.881z" fill="#ffcebf"/><g><g id="XMLID_574_"><path d="m62.36 389.623c-9.03 0-17.9-2.41-25.69-6.97l-13.92-8.15c-1.21-.71-2.59-1.08-3.99-1.08h-9.7c-5.004 0-9.06-4.056-9.06-9.06v-109.66c0-5.004 4.056-9.06 9.06-9.06h9.31.17 194.926v143.979z" fill="#eb9c8d"/><path d="m62.36 389.623c-9.03 0-17.9-2.41-25.69-6.97l-13.92-8.15c-1.21-.71-2.59-1.08-3.99-1.08h-9.7c-5.004 0-9.06-4.056-9.06-9.06v-109.66c0-5.004 4.056-9.06 9.06-9.06h9.31.17 194.926v143.979z" fill="#eb9c8d"/><path d="m36.67 358.403-13.92-8.15c-1.21-.71-2.59-1.08-3.99-1.08h-9.7c-5.004 0-9.06-4.057-9.06-9.061v24.25c0 5.004 4.056 9.061 9.06 9.061h9.7c1.4 0 2.78.37 3.99 1.08l13.92 8.15c7.79 4.56 16.66 6.97 25.69 6.97h151.106v-24.25h-151.106c-9.03 0-17.9-2.41-25.69-6.97z" fill="#d78878"/><g><path d="m213.466 290.396h-38.056c-22.266 0-40.38 18.405-40.38 41.028 0 5.771 1.185 11.264 3.312 16.25-5.514 6.905-8.821 15.645-8.821 25.148 0 5.993 1.323 11.681 3.675 16.8h80.27z" fill="#d78878"/><path d="m68.05 317.963c0 12.664 10.17 23.128 22.834 23.16h.236c13.57 0 26.801-4.776 37.265-13.46l1.714-1.425c5.29 3.027 11.361 4.697 17.691 4.697.242 0 .486-.002.672-.006 6.357-.112 12.573-1.924 17.979-5.24 5.374-3.297 9.794-7.977 12.79-13.546l34.235-63.758v-2.743h-145.416z" fill="#d78878"/><path d="m227.678 226.746c11.72 0 21.232 9.501 21.232 21.232 0 5.855-2.375 11.168-6.22 15.002-3.844 3.844-9.147 6.22-15.013 6.22h-7.116-34.88c-11.731 0-21.232-9.501-21.232-21.222 0-11.731 9.501-21.232 21.232-21.232z" fill="#eb9c8d"/><path d="m242.69 250.174c-3.844 3.844-9.147 6.22-15.013 6.22h-7.116-34.88c-9.498 0-17.53-6.23-20.245-14.821-.639 2.021-.987 4.172-.987 6.406 0 11.72 9.501 21.222 21.232 21.222h34.88 7.116c5.865 0 11.168-2.375 15.013-6.22 3.844-3.834 6.22-9.147 6.22-15.002 0-2.233-.349-4.384-.988-6.406-1.039 3.285-2.852 6.228-5.232 8.601z" fill="#d78878"/><path d="m222.01 268.227c11.642 0 21.09 9.438 21.09 21.09 0 5.816-2.359 11.093-6.178 14.901-3.818 3.818-9.086 6.178-14.912 6.178h-7.068-34.646c-11.652 0-21.09-9.438-21.09-21.079 0-11.652 9.438-21.09 21.09-21.09z" fill="#eb9c8d"/><path d="m236.921 292.072c-3.818 3.818-9.086 6.178-14.912 6.178h-7.068-34.646c-9.538 0-17.584-6.328-20.192-15.008-.578 1.925-.897 3.962-.897 6.076 0 11.642 9.438 21.079 21.089 21.079h34.646 7.068c5.826 0 11.093-2.359 14.912-6.178 3.818-3.808 6.178-9.086 6.178-14.901 0-2.113-.307-4.151-.886-6.076-1.015 3.377-2.859 6.403-5.292 8.83z" fill="#d78878"/><path d="m131.89 298.743-16.29 13.54c-6.88 5.71-15.54 8.84-24.48 8.84-39.435 0-71.671-31.456-72.637-70.879l-.113-4.601h.17l64.2-56.66c18.56-16.39 45.14-20.05 67.45-9.3l32.08 15.47c16.05 7.74 22.42 27.3 13.99 43l-34.65 64.53c-1.34 2.49-3.3 4.53-5.63 5.96s-5.04 2.24-7.87 2.29c-5.87.12-11.31-3.07-14.09-8.24z" fill="#eb9c8d"/></g></g><g id="XMLID_576_"><g fill="#eb9c8d"><path d="m215.72 310.396c11.25 0 20.38 9.41 20.38 21.029 0 5.799-2.28 11.061-5.97 14.858-3.69 3.807-8.78 6.16-14.41 6.16h-6.83-33.48c-11.26 0-20.38-9.41-20.38-21.018 0-11.618 9.12-21.029 20.38-21.029z"/><path d="m208.89 352.443c11.26 0 20.38 9.13 20.38 20.38 0 5.63-2.28 10.73-5.97 14.41-3.69 3.69-8.78 5.97-14.41 5.97h-38.99c-11.25 0-20.38-9.12-20.38-20.38 0-11.25 9.13-20.38 20.38-20.38h5.51z"/></g></g><g id="XMLID_579_"><g fill="#d78878"><path d="m230.13 332.151c-3.69 3.808-8.78 6.16-14.41 6.16h-6.83-33.48c-8.852 0-16.381-5.842-19.196-13.97-.766 2.212-1.184 4.6-1.184 7.084 0 11.608 9.12 21.018 20.38 21.018h33.48 6.83c5.63 0 10.72-2.353 14.41-6.16 3.69-3.797 5.97-9.06 5.97-14.858 0-2.484-.425-4.889-1.191-7.101-1.025 2.958-2.667 5.654-4.779 7.827z"/><path d="m223.3 373.101c-3.69 3.69-8.78 5.97-14.41 5.97h-38.99c-8.763 0-16.243-5.556-19.121-13.323-.817 2.204-1.259 4.588-1.259 7.076 0 11.26 9.13 20.38 20.38 20.38h38.99c5.63 0 10.72-2.28 14.41-5.97 3.69-3.68 5.97-8.78 5.97-14.41 0-2.487-.45-4.881-1.266-7.085-1.029 2.782-2.645 5.309-4.704 7.362z"/></g></g><g id="XMLID_582_"><path d="m361.51 332.073c0-22.266-18.109-40.38-40.369-40.38h-20.16v97.93h62.365c2.353-5.12 3.675-10.807 3.675-16.8 0-9.431-3.258-18.109-8.697-24.989 2.086-4.919 3.186-10.254 3.186-15.761z" fill="#ffcebf"/><path d="m437.524 245.643h-136.544v36.082l16.34 30.439c2.989 5.553 7.409 10.229 12.78 13.525 5.405 3.316 11.621 5.128 17.92 5.239.244.005.486.007.73.007 6.329 0 12.402-1.67 17.692-4.696l1.724 1.433c10.451 8.674 23.682 13.451 37.253 13.451.113 0 .225 0 .338-.001 17.61-.062 31.766-14.564 31.766-32.174v-63.305z" fill="#ffcebf"/><path d="m321.496 268.129c12.8 0 23.177 10.377 23.177 23.188 0 6.394-2.594 12.197-6.793 16.384-4.187 4.198-9.978 6.793-16.384 6.793h-38.105-7.771c-12.8 0-23.188-10.377-23.188-23.177 0-12.811 10.388-23.188 23.188-23.188z" fill="#ffdfcf"/><path d="m337.88 292.492c-4.187 4.198-9.979 6.792-16.384 6.792h-38.104-7.771c-10.136 0-18.764-6.517-21.914-15.582-.828 2.384-1.274 4.949-1.274 7.615 0 12.8 10.388 23.177 23.188 23.177h7.771 38.104c6.406 0 12.197-2.594 16.384-6.792 4.198-4.187 6.792-9.99 6.792-16.384 0-2.667-.455-5.225-1.283-7.609-1.159 3.341-3.058 6.338-5.509 8.783z" fill="#ffcebf"/><path d="m318.819 227.372c12.8 0 23.177 10.377 23.177 23.188 0 6.394-2.594 12.197-6.793 16.384-4.187 4.198-9.978 6.793-16.384 6.793h-38.105-7.771c-12.8 0-23.188-10.377-23.188-23.177 0-12.812 10.388-23.188 23.188-23.188z" fill="#ffdfcf"/><path d="m318.819 227.372c12.8 0 23.177 10.377 23.177 23.188 0 6.394-2.594 12.197-6.793 16.384-4.187 4.198-9.978 6.793-16.384 6.793h-38.105-7.771c-12.8 0-23.188-10.377-23.188-23.177 0-12.812 10.388-23.188 23.188-23.188z" fill="#ffdfcf"/><path d="m335.886 253.076c-4.187 4.199-9.979 6.793-16.384 6.793h-38.104-7.771c-10.782 0-19.853-7.373-22.446-17.344-.923 2.501-1.426 5.214-1.426 8.036 0 12.8 10.388 23.177 23.188 23.177h7.771 38.105c6.406 0 12.197-2.594 16.384-6.792 4.198-4.187 6.793-9.99 6.793-16.384 0-2.021-.259-3.98-.744-5.849-1.172 3.173-3.017 6.021-5.366 8.363z" fill="#ffcebf"/><g><path d="m364.65 298.743-2.12 3.95c-2.78 5.17-8.23 8.36-14.1 8.24-2.83-.05-5.54-.86-7.87-2.29s-4.29-3.47-5.63-5.96l-34.64-64.53c-8.43-15.7-2.07-35.26 13.98-43l32.09-15.47c22.3-10.75 48.88-7.09 67.45 9.3l64.19 56.66h1.5v1.4c0 40.913-33.167 74.08-74.08 74.08-8.94 0-17.6-3.13-24.48-8.84z" fill="#ffdfcf"/></g><g><path d="m374.462 247.227-9.75-19.56c-1.848-3.707-6.35-5.216-10.058-3.366-3.707 1.848-5.215 6.351-3.366 10.058l9.75 19.56c5.782 11.6 5.571 25.34-.563 36.753l-4.55 8.469c-1.458 2.712-4.228 4.362-7.363 4.294-1.447-.025-2.858-.435-4.078-1.184-1.239-.76-2.26-1.84-2.945-3.114l-16.909-31.5h-17.024l20.721 38.602c1.944 3.611 4.818 6.653 8.312 8.797 3.503 2.149 7.535 3.323 11.639 3.396.161.004.322.005.483.005 8.539 0 16.314-4.638 20.379-12.196l4.548-8.466c8.437-15.699 8.727-34.596.774-50.548z" fill="#ffcebf"/></g><path d="m306.946 234.696-3.68-7.323h-15.303c-.203 1.455.016 2.983.725 4.396l4.9 9.752c.03.061.062.12.093.18l17.198 32.038h7.94c2.915 0 5.7-.542 8.267-1.523z" fill="#ffcebf"/></g><g id="XMLID_587_"><g fill="#ffdfcf"><path d="m321.14 311.693c11.25 0 20.37 9.12 20.37 20.38 0 5.62-2.28 10.72-5.97 14.4-3.68 3.69-8.77 5.97-14.4 5.97h-33.49-6.83c-11.25 0-20.38-9.12-20.38-20.37 0-11.26 9.13-20.38 20.38-20.38z"/><path d="m326.64 352.443c11.26 0 20.38 9.13 20.38 20.38 0 11.26-9.12 20.38-20.38 20.38h-38.99c-5.63 0-10.72-2.28-14.41-5.97-3.69-3.68-5.97-8.78-5.97-14.41 0-11.25 9.12-20.38 20.38-20.38h33.49z"/></g></g><g id="XMLID_589_"><g fill="#ffcebf"><path d="m327.97 338.378h-33.49-6.83c-11.25 0-20.38-9.12-20.38-20.37 0-.399.026-.807.048-1.201-4.216 3.733-6.878 9.189-6.878 15.266 0 11.25 9.13 20.37 20.38 20.37h6.83 33.49c5.63 0 10.72-2.28 14.4-5.97 3.43-3.421 5.639-8.099 5.933-13.251-3.588 3.184-8.321 5.156-13.503 5.156z"/><path d="m333.47 379.138h-38.99c-5.63 0-10.72-2.28-14.41-5.97-3.69-3.68-5.97-8.78-5.97-14.41 0-.399.005-.789.028-1.183-4.217 3.735-6.857 9.174-6.857 15.248 0 5.63 2.28 10.73 5.97 14.41 3.69 3.69 8.78 5.97 14.41 5.97h38.99c10.86 0 19.73-8.5 20.347-19.204-3.596 3.182-8.337 5.139-13.518 5.139z"/></g></g><path d="m232.497 180.148-27.805-32.826c-10.282-10.327-10.891-26.826-1.397-37.881 9.532-11.101 26.019-12.957 37.781-4.254l6.481 4.795c.673.498 1.592.498 2.265 0l6.481-4.795c11.762-8.703 28.248-6.847 37.781 4.254 9.494 11.056 8.886 27.555-1.397 37.881l-32.685 32.826c-6.239 6.267-21.265 6.267-27.505 0z" fill="#f07281"/><g><path d="m224.735 68.248c-3.048 0-5.914-1.872-7.034-4.897l-4.826-13.031c-1.438-3.884.544-8.199 4.429-9.638 3.881-1.442 8.199.544 9.638 4.429l4.826 13.031c1.438 3.884-.544 8.199-4.429 9.638-.859.318-1.739.468-2.604.468z" fill="#fee97d"/></g><g><path d="m160.185 101.548c-1.653 0-3.317-.544-4.705-1.663l-13.16-10.618c-3.224-2.601-3.728-7.323-1.127-10.547 2.6-3.223 7.321-3.729 10.547-1.127l13.16 10.618c3.224 2.601 3.728 7.323 1.127 10.547-1.481 1.836-3.652 2.79-5.842 2.79z" fill="#fee97d"/></g><g><path d="m274.085 68.248c-.865 0-1.745-.15-2.604-.469-3.885-1.438-5.867-5.754-4.429-9.638l4.826-13.031c1.438-3.885 5.754-5.87 9.638-4.429 3.885 1.438 5.867 5.754 4.429 9.638l-4.826 13.031c-1.12 3.026-3.986 4.898-7.034 4.898z" fill="#fee97d"/></g><g><path d="m338.635 101.548c-2.189 0-4.36-.954-5.842-2.79-2.601-3.224-2.097-7.946 1.127-10.547l13.16-10.618c3.225-2.602 7.946-2.096 10.547 1.127 2.601 3.224 2.097 7.946-1.127 10.547l-13.16 10.618c-1.388 1.119-3.052 1.663-4.705 1.663z" fill="#fee97d"/></g><g><path d="m209.628 457.328c-1.516 0-3.044-.458-4.368-1.408-3.365-2.416-4.134-7.103-1.719-10.467l15.362-21.397c2.417-3.366 7.104-4.133 10.467-1.719 3.365 2.416 4.134 7.103 1.719 10.467l-15.362 21.397c-1.465 2.041-3.766 3.127-6.099 3.127z" fill="#fee97d"/></g><g><path d="m289.192 457.328c-2.333 0-4.633-1.086-6.099-3.127l-15.362-21.397c-2.415-3.364-1.646-8.051 1.719-10.467 3.363-2.414 8.049-1.647 10.467 1.719l15.362 21.397c2.415 3.364 1.646 8.051-1.719 10.467-1.324.95-2.853 1.408-4.368 1.408z" fill="#fee97d"/></g></g><path d="m195.311 226.746-40.305 72.383c-.689 1.282-1.709 2.361-2.948 3.121-1.22.749-2.631 1.158-4.101 1.185-3.085.056-5.874-1.583-7.335-4.302l-4.554-8.457c-6.133-11.425-6.345-25.166-.567-36.755l9.76-19.56c1.85-3.706.344-8.21-3.362-10.06-3.706-1.848-8.211-.344-10.06 3.362l-9.761 19.563c-7.947 15.941-7.658 34.836.776 50.549l4.561 8.469c4.061 7.554 11.832 12.192 20.347 12.192.159 0 .32-.002.48-.005 4.126-.073 8.158-1.247 11.66-3.396 3.495-2.145 6.369-5.187 8.315-8.805l44.531-79.485h-17.437z" fill="#d78878"/></g></svg>