<?xml version="1.0" encoding="UTF-8" standalone="no"?>
<svg
   xmlns:dc="http://purl.org/dc/elements/1.1/"
   xmlns:cc="http://creativecommons.org/ns#"
   xmlns:rdf="http://www.w3.org/1999/02/22-rdf-syntax-ns#"
   xmlns:svg="http://www.w3.org/2000/svg"
   xmlns="http://www.w3.org/2000/svg"
   xmlns:xlink="http://www.w3.org/1999/xlink"
   xmlns:sodipodi="http://sodipodi.sourceforge.net/DTD/sodipodi-0.dtd"
   xmlns:inkscape="http://www.inkscape.org/namespaces/inkscape"
   width="750"
   height="750"
   viewBox="0 0 198.4375 198.43751"
   version="1.1"
   id="svg8"
   inkscape:version="1.0.2-2 (e86c870879, 2021-01-15)"
   sodipodi:docname="smaKardesimLogo.svg"
   inkscape:export-filename="C:\Dosyalarım\İŞ\SMA Kardeşim\smaKardesimLogo.png"
   inkscape:export-xdpi="92"
   inkscape:export-ydpi="92">
  <defs
     id="defs2">
    <linearGradient
       inkscape:collect="always"
       id="linearGradient1136">
      <stop
         style="stop-color:#0000ff;stop-opacity:1"
         offset="0"
         id="stop1132" />
      <stop
         style="stop-color:#ff00ff;stop-opacity:0.97590363"
         offset="1"
         id="stop1134" />
    </linearGradient>
    <linearGradient
       inkscape:collect="always"
       xlink:href="#linearGradient1136"
       id="linearGradient1140"
       x1="33.082996"
       y1="167.92978"
       x2="32.862717"
       y2="120.68276"
       gradientUnits="userSpaceOnUse"
       gradientTransform="translate(5.2916669,0.52916667)" />
    <linearGradient
       inkscape:collect="always"
       xlink:href="#linearGradient1136"
       id="linearGradient1243"
       gradientUnits="userSpaceOnUse"
       gradientTransform="translate(5.2916669,0.52916667)"
       x1="33.082996"
       y1="167.92978"
       x2="32.862717"
       y2="120.68276" />
    <linearGradient
       inkscape:collect="always"
       xlink:href="#linearGradient1136"
       id="linearGradient1255"
       x1="87.066124"
       y1="196.17102"
       x2="87.188133"
       y2="168.8299"
       gradientUnits="userSpaceOnUse" />
  </defs>
  <sodipodi:namedview
     id="base"
     pagecolor="#ffffff"
     bordercolor="#666666"
     borderopacity="1.0"
     inkscape:pageopacity="0.0"
     inkscape:pageshadow="2"
     inkscape:zoom="0.98994949"
     inkscape:cx="138.13851"
     inkscape:cy="413.45518"
     inkscape:document-units="mm"
     inkscape:current-layer="layer1"
     inkscape:document-rotation="0"
     showgrid="false"
     inkscape:window-width="1920"
     inkscape:window-height="1017"
     inkscape:window-x="-8"
     inkscape:window-y="-8"
     inkscape:window-maximized="1"
     units="px" />
  <metadata
     id="metadata5">
    <rdf:RDF>
      <cc:Work
         rdf:about="">
        <dc:format>image/svg+xml</dc:format>
        <dc:type
           rdf:resource="http://purl.org/dc/dcmitype/StillImage" />
        <dc:title></dc:title>
      </cc:Work>
    </rdf:RDF>
  </metadata>
  <g
     inkscape:label="Katman 1"
     inkscape:groupmode="layer"
     id="layer1">
    <g
       id="g1150"
       transform="matrix(0.26458333,0,0,0.26458333,-89.830842,93.248652)" />
    <g
       id="g1152"
       transform="matrix(0.26458333,0,0,0.26458333,-89.830842,93.248652)" />
    <g
       id="g1154"
       transform="matrix(0.26458333,0,0,0.26458333,-89.830842,93.248652)" />
    <g
       id="g1156"
       transform="matrix(0.26458333,0,0,0.26458333,-89.830842,93.248652)" />
    <g
       id="g1158"
       transform="matrix(0.26458333,0,0,0.26458333,-89.830842,93.248652)" />
    <g
       id="g1160"
       transform="matrix(0.26458333,0,0,0.26458333,-89.830842,93.248652)" />
    <g
       id="g1162"
       transform="matrix(0.26458333,0,0,0.26458333,-89.830842,93.248652)" />
    <g
       id="g1164"
       transform="matrix(0.26458333,0,0,0.26458333,-89.830842,93.248652)" />
    <g
       id="g1166"
       transform="matrix(0.26458333,0,0,0.26458333,-89.830842,93.248652)" />
    <g
       id="g1168"
       transform="matrix(0.26458333,0,0,0.26458333,-89.830842,93.248652)" />
    <g
       id="g1170"
       transform="matrix(0.26458333,0,0,0.26458333,-89.830842,93.248652)" />
    <g
       id="g1172"
       transform="matrix(0.26458333,0,0,0.26458333,-89.830842,93.248652)" />
    <g
       id="g1174"
       transform="matrix(0.26458333,0,0,0.26458333,-89.830842,93.248652)" />
    <g
       id="g1176"
       transform="matrix(0.26458333,0,0,0.26458333,-89.830842,93.248652)" />
    <g
       id="g1178"
       transform="matrix(0.26458333,0,0,0.26458333,-89.830842,93.248652)" />
    <g
       id="g867"
       transform="matrix(1.7461032,0,0,1.7461032,-52.80772,-176.08771)">
      <g
         aria-label="S"
         id="text835"
         style="font-size:54.1491px;line-height:1.25;font-family:Zekton;-inkscape-font-specification:Zekton;letter-spacing:0px;word-spacing:0px;fill:url(#linearGradient1140);fill-opacity:1;stroke-width:1.84599"
         transform="translate(15.875004,1.4358678)">
        <path
           d="m 41.628883,136.64432 c -3.381416,-0.65402 -8.755628,-0.68938 -8.648525,-4.35557 0.07072,-2.24706 -0.475657,-2.22595 -2.721995,-2.25443 -1.798877,0.11255 -2.714713,2.05206 -2.721995,3.305 0.594477,6.84432 9.432411,7.95184 13.087795,13.0878 2.069079,4.20749 2.822701,11.74849 0.84608,15.86399 -2.417806,3.90829 -7.31444,5.07588 -11.263436,5.10292 -4.597078,-0.1633 -10.069261,-1.67609 -11.765796,-6.00188 -1.062444,-3.87388 -0.97828,-6.41645 -0.97828,-10.23227 7.315114,0.15463 7.692204,-1.548 7.692204,6.05912 -0.03396,1.7175 1.584272,2.90814 3.452684,2.93047 1.63188,-0.3683 3.433477,-2.22285 3.452683,-4.13953 -0.533821,-8.45167 -11.699222,-10.35817 -14.068771,-15.5847 -1.124892,-3.66003 -1.375107,-9.46912 0.37016,-12.79696 2.421231,-3.77103 7.037399,-4.81467 10.840396,-4.83851 4.120521,0.18169 9.573662,1.08184 11.422076,4.94427 1.045172,3.47994 1.00472,5.61348 1.00472,8.91028 z"
           style="font-style:normal;font-variant:normal;font-weight:normal;font-stretch:normal;font-family:Impact;-inkscape-font-specification:Impact;fill:url(#linearGradient1243);fill-opacity:1;stroke-width:1.84599"
           id="path1142"
           sodipodi:nodetypes="ccccccccccccccccc" />
      </g>
      <path
         id="path934"
         style="fill:#0000ff;stroke:#ff00fe;stroke-width:0.826755;stroke-miterlimit:4;stroke-dasharray:none;stroke-opacity:1"
         d="m 128.52813,124.69818 c -18.85576,10.35253 -9.65025,32.31373 -8.19297,43.71094 11.09302,-0.0726 8.22169,-15.14055 8.22169,-15.14055 0,0 -0.51395,15.15853 9.22879,15.14055 2.35531,-13.04864 8.49351,-34.68407 -9.25751,-43.71094 z m 0.28826,13.24093 c 3.14143,0 4.87148,1.57624 4.87148,4.43863 0,2.88326 -1.7756,4.53643 -4.87148,4.53643 -3.07692,-3e-5 -4.91391,-1.68139 -4.91391,-4.4975 0,-2.88735 1.74529,-4.47756 4.91391,-4.47756 z"
         sodipodi:nodetypes="cccccsssss" />
      <g
         id="g1241"
         transform="matrix(1.2561817,0,0,1.2561817,-25.450299,-42.755092)">
        <path
           id="XMLID_811_"
           d="m 98.185474,129.33951 c -3.245791,0 -6.169168,1.57802 -8.463557,3.78267 -2.29439,-2.20465 -5.332212,-3.43933 -8.578002,-3.43933 -6.84247,0 -12.409248,5.56677 -12.409248,12.40924 1.153634,7.12369 7.444886,21.76171 20.932644,26.34293 11.362259,-5.79009 20.680289,-17.93357 21.041529,-26.34293 0,-6.84247 -5.68089,-12.75258 -12.523366,-12.75258 z"
           style="opacity:0.673203;fill:#0000ff;stroke-width:0.320445"
           sodipodi:nodetypes="scscccs" />
        <path
           d="m 84.558339,151.20009 c 1.790062,4.53344 5.168576,12.80827 5.168576,12.80827 0,0 4.278744,-8.65141 5.181575,-12.82786 0.860181,4.68406 -2.91476,7.30876 -1.546601,11.11075 7.527471,-5.13196 19.438271,-19.62886 8.477081,-27.53408 -1.36008,-0.98089 -1.922644,-1.59709 -5.034451,-1.72649 -6.224315,0.10287 -5.859226,14.71964 -7.061227,20.08799 -1.981725,-6.18011 -0.06931,-19.56688 -6.526382,-19.56688 -2.005103,-0.0561 -2.586916,0.25289 -3.748613,0.72129 -14.393839,5.80368 -1.197498,23.80631 5.994805,28.01817 1.104228,-4.03284 -0.904763,-7.10324 -0.904763,-11.09116 z"
           id="path912"
           style="fill:#ffffff;stroke:#ff14fe;stroke-width:0.862;stroke-miterlimit:4;stroke-dasharray:none;stroke-opacity:1"
           sodipodi:nodetypes="ccccscccscc" />
      </g>
      <text
         xml:space="preserve"
         style="font-size:18.7231px;line-height:1.25;font-family:Zekton;-inkscape-font-specification:Zekton;letter-spacing:0px;word-spacing:0px;fill:url(#linearGradient1255);fill-opacity:1;stroke-width:0.638286"
         x="34.279686"
         y="190.56406"
         id="text1247"><tspan
           sodipodi:role="line"
           id="tspan1245"
           x="34.279686"
           y="190.56406"
           style="fill:url(#linearGradient1255);fill-opacity:1;stroke-width:0.638286">KARDEŞİM</tspan></text>
    </g>
  </g>
</svg>
