<svg id="Capa_1" enable-background="new 0 0 512 512" height="512" viewBox="0 0 512 512" width="512" xmlns="http://www.w3.org/2000/svg"><g><g><path clip-rule="evenodd" d="m46.055 355.317 67.202 55.614 61.918-55.614c7.561-9.284 14.334-20.932 16.815-34.974 11.298-64.051 34.243-79.115 14.421-86.735-18.8-7.211-41.396 10.773-41.396 37.426v-131.692c0-10.305-8.437-18.742-18.742-18.742s-18.742 8.437-18.742 18.742v-23.676c0-10.335-8.437-18.772-18.742-18.772s-18.742 8.437-18.742 18.772v13.75c0-10.305-8.437-18.742-18.742-18.742-10.334 0-18.771 8.437-18.771 18.742v43.002c0-8.612-7.006-15.648-15.618-15.648-8.583 0-16.348 7.036-16.348 15.648l.029 74.678c.265 40.404 1.578 82.852 25.458 108.221z" fill="#d19a6e" fill-rule="evenodd"/></g><g><path clip-rule="evenodd" d="m52.536 172.418c0-8.612-7.006-15.648-15.618-15.648-.263 0-.525.029-.817.029v64.343c0 10.802 16.436 10.802 16.436 0v-1.139-47.585z" fill="#c38c66" fill-rule="evenodd"/></g><g><path clip-rule="evenodd" d="m90.049 215.187v-85.771c0-9.517-7.211-17.458-16.436-18.596v104.368c0 4.525 3.678 8.203 8.203 8.203s8.233-3.679 8.233-8.204z" fill="#c38c66" fill-rule="evenodd"/></g><g><path clip-rule="evenodd" d="m127.533 210.487v-71.145-23.676-.117c-.058-9.488-7.24-17.37-16.436-18.509v113.447c0 4.525 3.708 8.233 8.232 8.233 4.496 0 8.204-3.708 8.204-8.233z" fill="#c38c66" fill-rule="evenodd"/></g><g><path clip-rule="evenodd" d="m206.412 233.608c-6.043-2.335-12.465-2.044-18.421.292 18.479 7.707-4.029 23.238-15.18 86.443-3.416 19.297-14.918 34.128-25.485 44.404h19.18c10.568-10.276 22.07-25.107 25.485-44.404 11.297-64.051 34.243-79.115 14.421-86.735z" fill="#c38c66" fill-rule="evenodd"/></g><g><path clip-rule="evenodd" d="m303.479 282.537 77.712 35.47 63.465-35.47c8.262-10.159 15.677-22.917 18.362-38.244 12.378-70.036 37.455-86.53 15.793-94.85-20.552-7.882-45.249 11.794-45.249 40.93v-143.984c0-11.269-9.225-20.494-20.493-20.494s-20.493 9.225-20.493 20.494v-25.895c0-11.269-9.225-20.494-20.494-20.494-11.298 0-20.523 9.225-20.523 20.494v15.035c0-11.269-9.225-20.494-20.493-20.494s-20.493 9.225-20.493 20.494v47.002c0-9.371-7.678-17.078-17.078-17.078s-17.895 7.707-17.895 17.078l.058 81.655c.263 44.199 1.722 90.617 27.821 118.351z" fill="#ffe4c1" fill-rule="evenodd"/></g><g><path clip-rule="evenodd" d="m310.573 82.531c0-9.371-7.678-17.078-17.078-17.078-.292 0-.584.029-.876.029v70.357c0 11.794 17.954 11.794 17.954 0v-1.255z" fill="#f1d0a5" fill-rule="evenodd"/></g><g><path clip-rule="evenodd" d="m351.56 129.299v-93.77c0-10.422-7.853-19.093-17.954-20.348v114.118c0 4.963 4.029 8.992 8.991 8.992 4.934 0 8.963-4.029 8.963-8.992z" fill="#f1d0a5" fill-rule="evenodd"/></g><g><path clip-rule="evenodd" d="m392.576 124.19v-77.801-25.895-.117c-.058-10.364-7.911-18.976-17.983-20.231v124.044c0 4.934 4.058 8.992 8.991 8.992 4.934 0 8.992-4.058 8.992-8.992z" fill="#f1d0a5" fill-rule="evenodd"/></g><g><path clip-rule="evenodd" d="m478.812 149.443c-6.598-2.511-13.633-2.219-20.143.35 20.202 8.408-4.408 25.369-16.611 94.5-3.708 21.078-16.29 37.31-27.85 48.549h20.99c11.531-11.24 24.113-27.471 27.821-48.549 12.377-70.036 37.454-86.53 15.793-94.85z" fill="#f1d0a5" fill-rule="evenodd"/></g><g><path clip-rule="evenodd" d="m31.575 355.317h151.862c2.773 0 5.021 2.277 5.021 5.051v146.436c0 2.773-2.248 5.051-5.021 5.051h-151.862c-2.773 0-5.05-2.277-5.05-5.051v-146.436c0-2.774 2.277-5.051 5.05-5.051z" fill="#c3ddff" fill-rule="evenodd"/></g><g><path clip-rule="evenodd" d="m150.216 511.854h33.222c2.773 0 5.021-2.277 5.021-5.051v-146.435c0-2.773-2.248-5.051-5.021-5.051h-8.262-19.121-.058-5.839c1.664 0 3.153.847 4.087 2.102.584.847.934 1.868.934 2.949v4.379 142.057c-.001 2.744-2.219 5.021-4.963 5.05z" fill="#9dc6fb" fill-rule="evenodd"/></g><g><path clip-rule="evenodd" d="m210.616 93.303 33.397-33.135 4.554-4.496c11.239-11.648 11.239-30.683 0-42.302-10.188-10.568-26.682-7.941-37.571 1.898-2.014 1.81-2.715 2.715-3.27 2.715-.525 0-1.255-.905-3.27-2.715-10.889-9.838-27.354-12.466-37.571-1.898-11.21 11.619-11.21 30.653 0 42.302l4.554 4.496 33.426 33.135c1.43 1.139 2.16 1.752 2.861 1.781.73-.029 1.459-.642 2.89-1.781z" fill="#ff8086" fill-rule="evenodd"/></g><g><path clip-rule="evenodd" d="m210.616 93.303 33.397-33.135 4.554-4.496c11.239-11.648 11.239-30.683 0-42.302-1.139-1.197-2.365-2.219-3.649-3.065-6.072-4.058-13.516-4.613-20.581-2.569.642.817 1.255 1.693 1.81 2.569 7.24 11.561 5.985 27.325-3.795 37.456l-4.554 4.525-27.179 26.917 14.246 14.101c1.43 1.139 2.16 1.752 2.861 1.781.73-.03 1.459-.643 2.89-1.782z" fill="#e5646e" fill-rule="evenodd"/></g><g><path clip-rule="evenodd" d="m287.831 282.537h165.67c3.124 0 5.693 2.569 5.693 5.722v218.019c0 3.153-2.569 5.722-5.693 5.722h-165.67c-3.153 0-5.693-2.569-5.693-5.722v-218.019c.001-3.153 2.54-5.722 5.693-5.722z" fill="#eceaed" fill-rule="evenodd"/></g><g><path clip-rule="evenodd" d="m408.165 512h45.337c3.124 0 5.693-2.569 5.693-5.722v-218.019c0-3.153-2.569-5.722-5.693-5.722h-8.845-20.902-.058-15.618c3.153 0 5.722 2.569 5.722 5.722v218.019c-.002 3.124-2.542 5.664-5.636 5.722z" fill="#dad8db" fill-rule="evenodd"/></g><g><path clip-rule="evenodd" d="m426.41 478.018 46.826-46.418 6.393-6.306c15.735-16.319 15.735-43.002 0-59.293-14.305-14.801-37.396-11.094-52.664 2.657-2.832 2.54-3.824 3.824-4.583 3.795-.759.029-1.752-1.255-4.583-3.795-15.268-13.75-38.36-17.458-52.635-2.657-15.735 16.29-15.735 42.973 0 59.293l6.364 6.306 46.826 46.418c2.014 1.606 3.036 2.481 4.029 2.511 1.02-.029 2.013-.905 4.027-2.511z" fill="#ff8086" fill-rule="evenodd"/></g><g><path clip-rule="evenodd" d="m479.629 425.295c15.735-16.319 15.735-43.002 0-59.293-5.751-5.956-12.932-8.904-20.435-9.43-4.35-.292-8.816.234-13.195 1.46.088.058.146.146.234.204 15.735 16.319 15.735 43.002 0 59.293l-44.461 44.053 16.582 16.436c2.014 1.606 3.036 2.481 4.029 2.511 1.022-.029 2.014-.905 4.029-2.511l46.826-46.418z" fill="#e5646e" fill-rule="evenodd"/></g><path d="m433.562 182.652v-136.263c0-10.422-7.882-19.093-17.983-20.348v164.332c0 .499.052.986.131 1.464-13.694 9.578-24.929 22.287-28.219 32.796-1.266 4.045.706 8.53 4.708 9.929.853.298 1.719.44 2.569.44 3.345 0 6.429-2.19 7.413-5.563 2.127-7.287 16.292-23.432 29.861-31.156.95-.541 1.519-1.568 1.519-2.661v-12.97z" fill="#f1d0a5"/><path d="m165.016 263.315v-123.973c0-9.517-7.181-17.458-16.436-18.596v148.741c0 .963-.451 1.862-1.212 2.451-7.854 6.073-22.499 21.302-25.238 30.679-1.196 4.096 1.155 8.386 5.251 9.582.723.211 1.452.312 2.169.312 3.345 0 6.428-2.19 7.413-5.563 1.902-6.514 10.549-18.864 26.319-26.858 1.053-.534 1.733-1.595 1.733-2.776v-13.999z" fill="#c38c66"/></g></svg>